<svg xmlns="http://www.w3.org/2000/svg" viewBox="0 0 900 620" role="img" aria-labelledby="title desc">
  <title id="title">GUBI balance diagram</title>
  <desc id="desc">A visual metaphor of vegetation capacity balancing urban pressure.</desc>
  <defs>
    <linearGradient id="bg" x1="0" x2="1" y1="0" y2="1">
      <stop offset="0" stop-color="#1b2223"/>
      <stop offset="0.55" stop-color="#35504d"/>
      <stop offset="1" stop-color="#8b7846"/>
    </linearGradient>
  </defs>
  <rect width="900" height="620" fill="url(#bg)"/>
  <path d="M90 440 C205 370 300 390 420 315 C560 228 655 260 820 170 L860 600 L40 600 Z" fill="#21a98a" opacity="0.9"/>
  <path d="M20 280 L870 125 L900 255 L60 410 Z" fill="#f8ba52" opacity="0.86"/>
  <path d="M190 110 L350 500" stroke="#ffffff" stroke-width="36" opacity="0.34"/>
  <path d="M455 92 L600 555" stroke="#151b1c" stroke-width="28" opacity="0.6"/>
  <g transform="translate(108 120)">
    <rect width="245" height="155" rx="18" fill="#ffffff" opacity="0.96"/>
    <circle cx="58" cy="64" r="28" fill="#21a98a"/>
    <path d="M58 43 C42 58 43 74 58 86 C74 72 75 57 58 43 Z" fill="#eef7ef"/>
    <rect x="100" y="45" width="105" height="13" rx="7" fill="#1b2223"/>
    <rect x="100" y="74" width="84" height="10" rx="5" fill="#687776"/>
    <rect x="28" y="116" width="188" height="13" rx="7" fill="#21a98a" opacity="0.26"/>
  </g>
  <g transform="translate(548 120)">
    <rect width="245" height="155" rx="18" fill="#ffffff" opacity="0.96"/>
    <rect x="40" y="52" width="34" height="58" rx="4" fill="#f8ba52"/>
    <rect x="86" y="34" width="46" height="76" rx="4" fill="#1b2223"/>
    <rect x="146" y="64" width="36" height="46" rx="4" fill="#d46d1f"/>
    <rect x="28" y="116" width="188" height="13" rx="7" fill="#d46d1f" opacity="0.24"/>
  </g>
  <g transform="translate(330 360)">
    <rect width="240" height="90" rx="18" fill="#ffffff"/>
    <text x="120" y="39" text-anchor="middle" font-family="Inter, Arial, sans-serif" font-size="21" font-weight="800" fill="#1b2223">GUBI</text>
    <text x="120" y="66" text-anchor="middle" font-family="Inter, Arial, sans-serif" font-size="14" font-weight="700" fill="#60706e">GCI - UPI</text>
  </g>
</svg>
